<svg xmlns="http://www.w3.org/2000/svg" width="51" height="50" viewBox="0 0 51 50"><path d="M24.362,48.329v-5.28a1.669,1.669,0,1,1,3.338,0v5.28a1.669,1.669,0,1,1-3.338,0Zm17-5.711L37.653,38.9a1.638,1.638,0,0,1,2.315-2.317L43.733,40.3a1.629,1.629,0,0,1,0,2.318,1.691,1.691,0,0,1-2.367,0Zm-30.511-.105L9.994,41.38a.432.432,0,0,0-.484-.162l-1.345.431a.465.465,0,0,1-.537-.7l.806-1.185a.489.489,0,0,0,0-.539l-.861-1.132a.448.448,0,0,1,.483-.7l1.345.431a.435.435,0,0,0,.483-.162l.807-1.132a.455.455,0,0,1,.807.269l.055,1.4a.471.471,0,0,0,.323.431l1.345.431a.476.476,0,0,1,.11.863l-1.345.484a.411.411,0,0,0-.324.431v1.4a.435.435,0,0,1-.447.44A.464.464,0,0,1,10.855,42.512Zm5.473-7.767a13.778,13.778,0,1,1,9.755,4.048A13.72,13.72,0,0,1,16.328,34.745Zm-.684-9.8A10.485,10.485,0,0,0,26.083,35.451V14.495A10.457,10.457,0,0,0,15.644,24.945ZM1.977,28.662l.376-1.993a.743.743,0,0,0-.323-.7L.309,24.945a.641.641,0,0,1,.269-1.184l1.991-.215a.572.572,0,0,0,.538-.484l.431-1.993a.626.626,0,0,1,1.184-.107l.861,1.831a.584.584,0,0,0,.645.377l1.991-.215A.659.659,0,0,1,8.7,24.087L7.2,25.434a.664.664,0,0,0-.162.753l.807,1.831c.214.539-.376,1.13-.751.754L5.314,27.8a.754.754,0,0,0-.752.108L3.054,29.255a.647.647,0,0,1-1.076-.593Zm42.08-1.992a1.671,1.671,0,0,1,0-3.342h5.274a1.671,1.671,0,0,1,0,3.342Zm-6.4-13.254a1.629,1.629,0,0,1,0-2.318l3.713-3.716A1.637,1.637,0,1,1,43.681,9.7l-3.712,3.717a1.668,1.668,0,0,1-1.184.484A1.642,1.642,0,0,1,37.653,13.416ZM8.486,12.985l.269-1.4a.432.432,0,0,0-.214-.484l-1.186-.645a.464.464,0,0,1,.162-.863l1.4-.162a.532.532,0,0,0,.376-.377l.317-1.4a.463.463,0,0,1,.862-.107l.593,1.292a.427.427,0,0,0,.431.269l1.4-.162a.442.442,0,0,1,.376.753l-1.022.97a.512.512,0,0,0-.107.539l.593,1.292a.463.463,0,0,1-.645.594l-1.238-.7a.5.5,0,0,0-.538.055l-1.076.97a.46.46,0,0,1-.3.108A.442.442,0,0,1,8.486,12.985ZM24.359,6.952V1.671a1.669,1.669,0,1,1,3.338,0l0,5.28a1.679,1.679,0,0,1-1.67,1.671A1.758,1.758,0,0,1,24.359,6.952Z" transform="translate(0)" fill="#003469"/></svg>