<svg xmlns="http://www.w3.org/2000/svg" width="19.042" height="19.792" viewBox="0 0 19.042 19.792"><path d="M5.438,19.792a1.419,1.419,0,0,1-1.417-1.417V17.75H1.063a1.042,1.042,0,1,1,0-2.083H4v-.625a1.419,1.419,0,0,1,1.417-1.418H6.772a1.419,1.419,0,0,1,1.417,1.418v.625H17.98a1.076,1.076,0,0,1,1.062,1.042A1.045,1.045,0,0,1,18,17.75H8.209v.625a1.419,1.419,0,0,1-1.418,1.417Zm6.812-6.813a1.432,1.432,0,0,1-1.417-1.417v-.625H1.041A1.059,1.059,0,0,1,0,9.9,1.045,1.045,0,0,1,1.041,8.854h9.792V8.229A1.418,1.418,0,0,1,12.25,6.812H13.6a1.419,1.419,0,0,1,1.417,1.417v.625H17.98A1.057,1.057,0,0,1,19.021,9.9a1.045,1.045,0,0,1-1.041,1.042H15.021v.625A1.418,1.418,0,0,1,13.6,12.979ZM5.438,6.167A1.418,1.418,0,0,1,4.021,4.75V4.126H1.063a1.042,1.042,0,1,1,0-2.084H4.021V1.417A1.418,1.418,0,0,1,5.438,0H6.791A1.418,1.418,0,0,1,8.209,1.417v.625H18a1.042,1.042,0,1,1,0,2.084H8.209V4.75A1.419,1.419,0,0,1,6.791,6.167Z" fill="#00bd72"/></svg>