<svg xmlns="http://www.w3.org/2000/svg" width="20" height="20" viewBox="0 0 20 20"><path d="M9.99,20a1.156,1.156,0,0,1-1-.553l-2.42-4.025H1.5A1.471,1.471,0,0,1,0,13.947V1.475A1.471,1.471,0,0,1,1.5,0h17a1.539,1.539,0,0,1,1.1.456A1.4,1.4,0,0,1,20,1.475V13.947a1.472,1.472,0,0,1-1.5,1.475H13.426l-2.441,4.025A1.156,1.156,0,0,1,9.99,20ZM13,4.129a2.017,2.017,0,0,0-1.456.61,1.915,1.915,0,0,0-.621,1.391,2.056,2.056,0,0,0,.514,1.348,1.8,1.8,0,0,0,1.37.527A4.053,4.053,0,0,1,11.991,9.8c-.033.043-.066.082-.1.119s-.063.072-.094.113a.264.264,0,0,0,0,.379l.771.8a.317.317,0,0,0,.222.1.265.265,0,0,0,.206-.1,8.856,8.856,0,0,0,.921-1.2,7.047,7.047,0,0,0,1.156-3.54,2.334,2.334,0,0,0-.621-1.686A1.954,1.954,0,0,0,13,4.129Zm-5.974,0a2.02,2.02,0,0,0-1.456.61,1.915,1.915,0,0,0-.621,1.391A2.056,2.056,0,0,0,5.46,7.48a1.818,1.818,0,0,0,1.391.526A4.044,4.044,0,0,1,6.037,9.8c-.032.043-.065.081-.1.118s-.063.072-.094.114a.264.264,0,0,0,0,.379l.77.8a.319.319,0,0,0,.223.1.265.265,0,0,0,.206-.1,8.931,8.931,0,0,0,.922-1.2A6.441,6.441,0,0,0,9.1,6.469,2.334,2.334,0,0,0,8.48,4.784,1.954,1.954,0,0,0,7.024,4.13Z" fill="#00bd72"/></svg>