<svg xmlns="http://www.w3.org/2000/svg" width="45" height="50" viewBox="0 0 45 50"><path d="M22.639,50a.684.684,0,0,1-.326-.083.691.691,0,0,1-.356-.6V47.681A22.5,22.5,0,0,1,6.42,40.826a22.7,22.7,0,0,1,3.766-34.8.586.586,0,0,1,.643,0L14.13,8.2a.38.38,0,0,1-.036.648A18.324,18.324,0,0,0,8.227,36.26a18.01,18.01,0,0,0,13.714,6.993V41.647a.683.683,0,0,1,1.067-.578L28.84,44.9a.691.691,0,0,1,0,1.154l-5.832,3.836A.678.678,0,0,1,22.639,50Zm11.855-5.927a.588.588,0,0,1-.322-.1l-3.3-2.168a.381.381,0,0,1-.166-.335.371.371,0,0,1,.2-.312,18.326,18.326,0,0,0,5.853-27.418A18.016,18.016,0,0,0,23.049,6.756V8.363a.691.691,0,0,1-.356.6.68.68,0,0,1-.7-.026L16.165,5.1a.689.689,0,0,1,0-1.151L22,.119A.675.675,0,0,1,22.381,0,.692.692,0,0,1,22.7.081a.685.685,0,0,1,.36.616V2.323A22.463,22.463,0,0,1,39.712,10.39a22.792,22.792,0,0,1-4.9,33.588A.585.585,0,0,1,34.494,44.073ZM22.5,37.631a12.487,12.487,0,0,1-8.86-3.7,12.694,12.694,0,0,1,0-17.856,12.468,12.468,0,0,1,17.719,0,12.684,12.684,0,0,1,0,17.851A12.415,12.415,0,0,1,22.5,37.631ZM19.26,28.612a1.156,1.156,0,0,0-1.116.873v.1a1.2,1.2,0,0,0,.786,1.428,9.335,9.335,0,0,0,2.434.439v.944a1.028,1.028,0,0,0,.229.824,1.008,1.008,0,0,0,1.541,0,1.024,1.024,0,0,0,.229-.824v-1.1c2.206-.383,3.631-1.874,3.631-3.8,0-1.869-.987-2.984-3.407-3.847-1.694-.667-2.45-1.08-2.45-1.769,0-.347.171-1.154,1.756-1.154h.019a6.238,6.238,0,0,1,1.789.261,1.19,1.19,0,0,0,.627-2.3,8.643,8.643,0,0,0-1.863-.271v-.795a1.013,1.013,0,1,0-2.025,0v.944c-2.126.424-3.447,1.827-3.447,3.663,0,1.767,1.1,2.893,3.676,3.765,1.535.515,2.161,1.034,2.161,1.791s-.787,1.275-1.959,1.275a6.8,6.8,0,0,1-2.207-.384,1.185,1.185,0,0,0-.39-.066H19.26Z" transform="translate(0 0)" fill="#ffc703"/></svg>