<svg xmlns="http://www.w3.org/2000/svg" width="69" height="50.001" viewBox="0 0 69 50.001"><path d="M69,50H26.437V0H69V50h0ZM33.411,25.037A14.308,14.308,0,1,0,47.718,10.783,14.3,14.3,0,0,0,33.411,25.037ZM13.218,42.908V7.236h9.95V42.908Zm23.46-17.872a11.076,11.076,0,1,1,18.949,7.816,10.943,10.943,0,0,1-7.835,3.256A11.105,11.105,0,0,1,36.679,25.036Zm5.518-.8a1.489,1.489,0,0,0-.5,1.038,1.673,1.673,0,0,0,.424,1.206L45.028,29.6a1.715,1.715,0,0,0,1.164.506,1.441,1.441,0,0,0,1.163-.506l5.521-5.862a1.641,1.641,0,0,0,.443-1.237,1.815,1.815,0,0,0-1.675-1.53,1.574,1.574,0,0,0-1.168.526l-4.284,4.63-1.742-1.809a1.5,1.5,0,0,0-1.136-.5A1.683,1.683,0,0,0,42.2,24.24ZM0,35.746V14.4H10.024V35.746Z" fill="#ffc703"/></svg>