<svg xmlns="http://www.w3.org/2000/svg" width="36" height="50" viewBox="0 0 36 50"><path d="M30.425,50H5.575A5.6,5.6,0,0,1,0,44.389V24.282a5.6,5.6,0,0,1,3.622-5.236c-.1-4.517.589-10.782,4.451-14.974A12.884,12.884,0,0,1,17.978,0a12.924,12.924,0,0,1,9.913,4.048,15.665,15.665,0,0,1,3.4,6.312,28.55,28.55,0,0,1,1.019,8.666A5.61,5.61,0,0,1,36,24.282V44.389A5.6,5.6,0,0,1,30.425,50ZM17.975,26.833a4.014,4.014,0,0,0-2.2,7.353v4.4a2.2,2.2,0,1,0,4.4,0v-4.4a4.014,4.014,0,0,0-2.2-7.353Zm0-20.194a6.484,6.484,0,0,0-5.066,1.945c-1.788,1.941-2.773,5.619-2.7,10.09H25.738c.076-4.566-.874-8.153-2.677-10.1A6.528,6.528,0,0,0,17.975,6.639Z" fill="#003469"/></svg>